<?xml version="1.0" encoding="utf-8"?>
<!-- Generator: Adobe Illustrator 16.0.0, SVG Export Plug-In . SVG Version: 6.00 Build 0)  -->
<!DOCTYPE svg PUBLIC "-//W3C//DTD SVG 1.1//EN" "http://www.w3.org/Graphics/SVG/1.1/DTD/svg11.dtd">
<svg version="1.1" id="Layer_1" xmlns="http://www.w3.org/2000/svg" xmlns:xlink="http://www.w3.org/1999/xlink" x="0px" y="0px"
	 width="24px" height="24px" viewBox="0 0 24 24" enable-background="new 0 0 24 24" xml:space="preserve">
<path fill="#FFFFFF" d="M19.883,12.239c0.157-0.159,0.157-0.319,0-0.479l-1.522-1.68C18.279,10,18.279,9.92,18.279,9.761l0.24-2.241
	c0-0.159-0.081-0.4-0.319-0.4l-2.16-0.481c-0.078,0-0.239-0.08-0.239-0.16l-1.12-1.92c-0.079-0.159-0.318-0.24-0.56-0.159l-2,0.879
	c-0.082,0.081-0.241,0.081-0.32,0L9.8,4.4c-0.239-0.081-0.399,0-0.56,0.159l-1.12,1.92c0,0.08-0.16,0.16-0.24,0.16L5.72,7.12
	C5.56,7.199,5.4,7.36,5.4,7.6l0.239,2.24c0,0.081,0,0.241-0.08,0.32L4.12,11.84c-0.16,0.16-0.16,0.32,0,0.48l1.439,1.6
	c0.08,0.082,0.08,0.16,0.08,0.321L5.4,16.479c0,0.16,0.08,0.401,0.32,0.401l2.16,0.481c0.081,0,0.24,0.08,0.24,0.159l1.12,1.919
	c0.082,0.161,0.32,0.24,0.561,0.161l2-0.881c0.08-0.082,0.24-0.082,0.32,0l1.999,0.881c0.16,0.079,0.402,0,0.562-0.161l1.118-1.919
	c0.082-0.082,0.161-0.16,0.241-0.16l2.158-0.48c0.16,0,0.321-0.242,0.321-0.401l-0.241-2.239c0-0.08,0-0.241,0.08-0.32
	L19.883,12.239z"/>
<path fill="#00A680" d="M21.852,12.3c0.197-0.2,0.197-0.399,0-0.6L19.95,9.6C19.85,9.5,19.85,9.401,19.85,9.201l0.299-2.8
	c0-0.2-0.101-0.5-0.398-0.5L17.05,5.3c-0.1,0-0.3-0.1-0.3-0.2l-1.398-2.4c-0.102-0.2-0.399-0.3-0.699-0.2l-2.5,1.1
	c-0.102,0.1-0.301,0.1-0.4,0l-2.5-1.1c-0.3-0.1-0.5,0-0.7,0.2l-1.4,2.4c0,0.1-0.2,0.2-0.3,0.2L4.151,5.9c-0.2,0.1-0.4,0.3-0.4,0.6
	l0.3,2.8c0,0.101,0,0.3-0.1,0.4l-1.8,2.1c-0.2,0.2-0.2,0.4,0,0.601l1.8,2c0.1,0.102,0.1,0.199,0.1,0.399l-0.3,2.8
	c0,0.2,0.1,0.5,0.4,0.5l2.7,0.603c0.1,0,0.3,0.1,0.3,0.198l1.4,2.399c0.101,0.2,0.4,0.3,0.7,0.2l2.5-1.1c0.1-0.103,0.3-0.103,0.4,0
	l2.5,1.1c0.199,0.1,0.5,0,0.699-0.2l1.398-2.399c0.102-0.102,0.2-0.199,0.3-0.199l2.7-0.602c0.2,0,0.4-0.301,0.4-0.5l-0.301-2.801
	c0-0.1,0-0.3,0.101-0.398L21.852,12.3z M10.149,16.4l-3.7-3.7l1.4-1.4l2.3,2.3l6-6L17.449,9L10.149,16.4z"/>
</svg>
